<svg width="44" height="24" viewBox="0 0 44 24" fill="none" xmlns="http://www.w3.org/2000/svg">
<path d="M40.7425 0.972506L22 19.2425L3.25751 0.972506C2.92264 0.645422 2.47311 0.462307 2.00501 0.462307C1.53691 0.462307 1.08738 0.645422 0.752511 0.972506C0.590369 1.13137 0.461557 1.32099 0.373619 1.53027C0.285682 1.73954 0.240387 1.96426 0.240387 2.19126C0.240387 2.41825 0.285682 2.64297 0.373619 2.85224C0.461557 3.06152 0.590369 3.25114 0.752511 3.41L20.6913 22.85C21.0414 23.1913 21.511 23.3823 22 23.3823C22.489 23.3823 22.9586 23.1913 23.3088 22.85L43.2475 3.41376C43.4108 3.25477 43.5406 3.06468 43.6292 2.85472C43.7178 2.64475 43.7635 2.41916 43.7635 2.19126C43.7635 1.96335 43.7178 1.73776 43.6292 1.52779C43.5406 1.31783 43.4108 1.12774 43.2475 0.968754C42.9126 0.64167 42.4631 0.458557 41.995 0.458557C41.5269 0.458557 41.0774 0.64167 40.7425 0.968754V0.972506Z" fill="white" fill-opacity="0.7"/>
</svg>
